<?xml version="1.0" encoding="utf-8"?>
<!-- Generator: Adobe Illustrator 16.0.4, SVG Export Plug-In . SVG Version: 6.00 Build 0)  -->
<!DOCTYPE svg PUBLIC "-//W3C//DTD SVG 1.1//EN" "http://www.w3.org/Graphics/SVG/1.1/DTD/svg11.dtd">
<svg version="1.1" id="Layer_1" xmlns="http://www.w3.org/2000/svg" xmlns:xlink="http://www.w3.org/1999/xlink" x="0px" y="0px"
	 width="50px" height="50px" viewBox="0 0 50 50" enable-background="new 0 0 50 50" xml:space="preserve">
<path d="M39.25,9.25h-28.5c-0.829,0-1.5,0.671-1.5,1.5v28.5c0,0.828,0.671,1.5,1.5,1.5h28.5c0.829,0,1.5-0.672,1.5-1.5v-28.5
	C40.75,9.921,40.079,9.25,39.25,9.25z M37.75,37.75h-25.5v-25.5h25.5V37.75z M15.991,21.767c-0.296-0.462-0.316-1.048-0.053-1.529
	c0.263-0.481,0.768-0.78,1.316-0.78h15.494c0.549,0,1.053,0.299,1.316,0.78c0.263,0.481,0.242,1.067-0.053,1.529l-7.748,12.084
	c-0.275,0.43-0.75,0.69-1.263,0.69c-0.512,0-0.987-0.261-1.263-0.69L15.991,21.767z"/>
</svg>
